<mxfile modified="2023-07-06T18:49:15.016Z" host="app.diagrams.net" agent="Mozilla/5.0 (Windows NT 10.0; Win64; x64) AppleWebKit/537.36 (KHTML, like Gecko) Chrome/114.0.0.0 Safari/537.36 Edg/114.0.1823.67" etag="RxZeqRwqOsKuVIKjQESj" version="21.5.2" type="device">
  <diagram id="Ht1M8jgEwFfnCIfOTk4-" name="microservicios v1">
    <mxGraphModel dx="1098" dy="670" grid="1" gridSize="10" guides="1" tooltips="1" connect="1" arrows="1" fold="1" page="1" pageScale="1" pageWidth="1169" pageHeight="827" math="0" shadow="0">
      <root>
        <mxCell id="0" />
        <mxCell id="1" parent="0" />
        <mxCell id="t-BpzT4MY3fLpFHktupe-6" value="" style="rounded=0;whiteSpace=wrap;html=1;fillColor=none;dashed=1;strokeWidth=2;" parent="1" vertex="1">
          <mxGeometry x="310" y="20" width="850" height="580" as="geometry" />
        </mxCell>
        <mxCell id="UEzPUAAOIrF-is8g5C7q-128" style="rounded=0;orthogonalLoop=1;jettySize=auto;html=1;startArrow=open;startFill=0;endArrow=open;endFill=0;strokeWidth=2;strokeColor=#808080;" parent="1" source="UEzPUAAOIrF-is8g5C7q-109" target="UEzPUAAOIrF-is8g5C7q-114" edge="1">
          <mxGeometry relative="1" as="geometry" />
        </mxCell>
        <mxCell id="UEzPUAAOIrF-is8g5C7q-109" value="consumers" style="outlineConnect=0;gradientColor=none;fontColor=#545B64;strokeColor=none;fillColor=#879196;dashed=0;verticalLabelPosition=bottom;verticalAlign=top;align=center;html=1;fontSize=12;fontStyle=0;aspect=fixed;shape=mxgraph.aws4.illustration_desktop;pointerEvents=1;labelBackgroundColor=#ffffff;" parent="1" vertex="1">
          <mxGeometry x="120" y="280.5" width="100" height="91" as="geometry" />
        </mxCell>
        <mxCell id="t-BpzT4MY3fLpFHktupe-16" style="edgeStyle=orthogonalEdgeStyle;rounded=0;orthogonalLoop=1;jettySize=auto;html=1;endArrow=open;strokeColor=#808080;startArrow=open;startFill=0;endFill=0;strokeWidth=2;" parent="1" source="UEzPUAAOIrF-is8g5C7q-114" target="t-BpzT4MY3fLpFHktupe-8" edge="1">
          <mxGeometry relative="1" as="geometry" />
        </mxCell>
        <mxCell id="t-BpzT4MY3fLpFHktupe-23" value="" style="edgeStyle=orthogonalEdgeStyle;rounded=0;orthogonalLoop=1;jettySize=auto;html=1;" parent="1" source="UEzPUAAOIrF-is8g5C7q-114" target="t-BpzT4MY3fLpFHktupe-17" edge="1">
          <mxGeometry relative="1" as="geometry" />
        </mxCell>
        <mxCell id="UEzPUAAOIrF-is8g5C7q-114" value="Spring Cloud&amp;nbsp;&lt;br&gt;Gateway" style="outlineConnect=0;fontColor=#232F3E;gradientColor=#945DF2;gradientDirection=north;fillColor=#5A30B5;strokeColor=#ffffff;dashed=0;verticalLabelPosition=bottom;verticalAlign=top;align=center;html=1;fontSize=12;fontStyle=0;aspect=fixed;shape=mxgraph.aws4.resourceIcon;resIcon=mxgraph.aws4.api_gateway;labelBackgroundColor=#ffffff;" parent="1" vertex="1">
          <mxGeometry x="366.4" y="287" width="78" height="78" as="geometry" />
        </mxCell>
        <mxCell id="t-BpzT4MY3fLpFHktupe-10" style="edgeStyle=orthogonalEdgeStyle;rounded=0;orthogonalLoop=1;jettySize=auto;html=1;exitX=0.005;exitY=0.63;exitDx=0;exitDy=0;exitPerimeter=0;" parent="1" source="t-BpzT4MY3fLpFHktupe-1" target="t-BpzT4MY3fLpFHktupe-8" edge="1">
          <mxGeometry relative="1" as="geometry" />
        </mxCell>
        <mxCell id="t-BpzT4MY3fLpFHktupe-1" value="card-service" style="sketch=0;html=1;dashed=0;whitespace=wrap;fillColor=#2875E2;strokeColor=#ffffff;points=[[0.005,0.63,0],[0.1,0.2,0],[0.9,0.2,0],[0.5,0,0],[0.995,0.63,0],[0.72,0.99,0],[0.5,1,0],[0.28,0.99,0]];verticalLabelPosition=bottom;align=center;verticalAlign=top;shape=mxgraph.kubernetes.icon;prIcon=api" parent="1" vertex="1">
          <mxGeometry x="900" y="20" width="104.17" height="100" as="geometry" />
        </mxCell>
        <mxCell id="t-BpzT4MY3fLpFHktupe-11" style="edgeStyle=orthogonalEdgeStyle;rounded=0;orthogonalLoop=1;jettySize=auto;html=1;entryX=0.765;entryY=0.015;entryDx=0;entryDy=0;entryPerimeter=0;exitX=0.005;exitY=0.63;exitDx=0;exitDy=0;exitPerimeter=0;" parent="1" source="t-BpzT4MY3fLpFHktupe-2" target="t-BpzT4MY3fLpFHktupe-8" edge="1">
          <mxGeometry relative="1" as="geometry">
            <Array as="points">
              <mxPoint x="1031" y="200" />
              <mxPoint x="732" y="200" />
            </Array>
          </mxGeometry>
        </mxCell>
        <mxCell id="t-BpzT4MY3fLpFHktupe-2" value="card-service" style="sketch=0;html=1;dashed=0;whitespace=wrap;fillColor=#2875E2;strokeColor=#ffffff;points=[[0.005,0.63,0],[0.1,0.2,0],[0.9,0.2,0],[0.5,0,0],[0.995,0.63,0],[0.72,0.99,0],[0.5,1,0],[0.28,0.99,0]];verticalLabelPosition=bottom;align=center;verticalAlign=top;shape=mxgraph.kubernetes.icon;prIcon=api" parent="1" vertex="1">
          <mxGeometry x="1030" y="20" width="104.17" height="100" as="geometry" />
        </mxCell>
        <mxCell id="t-BpzT4MY3fLpFHktupe-12" style="edgeStyle=orthogonalEdgeStyle;rounded=0;orthogonalLoop=1;jettySize=auto;html=1;entryX=0.985;entryY=0.618;entryDx=0;entryDy=0;entryPerimeter=0;" parent="1" source="t-BpzT4MY3fLpFHktupe-3" target="t-BpzT4MY3fLpFHktupe-8" edge="1">
          <mxGeometry relative="1" as="geometry" />
        </mxCell>
        <mxCell id="t-BpzT4MY3fLpFHktupe-3" value="transaction-service&lt;span style=&quot;white-space: pre;&quot;&gt;&#x9;&lt;/span&gt;" style="sketch=0;html=1;dashed=0;whitespace=wrap;fillColor=#2875E2;strokeColor=#ffffff;points=[[0.005,0.63,0],[0.1,0.2,0],[0.9,0.2,0],[0.5,0,0],[0.995,0.63,0],[0.72,0.99,0],[0.5,1,0],[0.28,0.99,0]];verticalLabelPosition=bottom;align=center;verticalAlign=top;shape=mxgraph.kubernetes.icon;prIcon=api" parent="1" vertex="1">
          <mxGeometry x="890" y="414" width="104.17" height="100" as="geometry" />
        </mxCell>
        <mxCell id="t-BpzT4MY3fLpFHktupe-13" style="edgeStyle=orthogonalEdgeStyle;rounded=0;orthogonalLoop=1;jettySize=auto;html=1;entryX=1.029;entryY=0.941;entryDx=0;entryDy=0;entryPerimeter=0;" parent="1" source="t-BpzT4MY3fLpFHktupe-4" target="t-BpzT4MY3fLpFHktupe-8" edge="1">
          <mxGeometry relative="1" as="geometry">
            <mxPoint x="770" y="390" as="targetPoint" />
            <Array as="points">
              <mxPoint x="1082" y="390" />
            </Array>
          </mxGeometry>
        </mxCell>
        <mxCell id="t-BpzT4MY3fLpFHktupe-4" value="transaction-service" style="sketch=0;html=1;dashed=0;whitespace=wrap;fillColor=#2875E2;strokeColor=#ffffff;points=[[0.005,0.63,0],[0.1,0.2,0],[0.9,0.2,0],[0.5,0,0],[0.995,0.63,0],[0.72,0.99,0],[0.5,1,0],[0.28,0.99,0]];verticalLabelPosition=bottom;align=center;verticalAlign=top;shape=mxgraph.kubernetes.icon;prIcon=api" parent="1" vertex="1">
          <mxGeometry x="1030" y="414" width="104.17" height="100" as="geometry" />
        </mxCell>
        <mxCell id="t-BpzT4MY3fLpFHktupe-7" value="" style="sketch=0;aspect=fixed;html=1;points=[];align=center;image;fontSize=12;image=img/lib/mscae/Docker.svg;dashed=1;" parent="1" vertex="1">
          <mxGeometry x="320" y="30" width="134.15" height="110" as="geometry" />
        </mxCell>
        <mxCell id="t-BpzT4MY3fLpFHktupe-8" value="Spring Cloud Eureka Discovery" style="aspect=fixed;html=1;points=[];align=center;image;fontSize=12;image=img/lib/azure2/compute/Azure_Spring_Cloud.svg;dashed=1;" parent="1" vertex="1">
          <mxGeometry x="680" y="292" width="68" height="68" as="geometry" />
        </mxCell>
        <mxCell id="t-BpzT4MY3fLpFHktupe-17" value="Auth" style="sketch=0;outlineConnect=0;fontColor=#232F3E;gradientColor=none;fillColor=#801EA3;strokeColor=none;dashed=0;verticalLabelPosition=bottom;verticalAlign=top;align=center;html=1;fontSize=12;fontStyle=0;aspect=fixed;pointerEvents=1;shape=mxgraph.aws4.addon;" parent="1" vertex="1">
          <mxGeometry x="376.15" y="430" width="58.5" height="30" as="geometry" />
        </mxCell>
        <mxCell id="VRGe0TusuyNJdKc4_1dA-1" value="" style="outlineConnect=0;dashed=0;verticalLabelPosition=bottom;verticalAlign=top;align=center;html=1;shape=mxgraph.aws3.mysql_db_instance;fillColor=#2E73B8;gradientColor=none;" vertex="1" parent="1">
          <mxGeometry x="1020" y="230" width="96.74" height="104" as="geometry" />
        </mxCell>
      </root>
    </mxGraphModel>
  </diagram>
</mxfile>
